<svg xmlns="http://www.w3.org/2000/svg" width="64" height="64" viewBox="0 0 64 64"><defs><linearGradient id="metal" x1="0" y1="0" x2="0.75" y2="1"><stop stop-color="#d5bd76" stop-opacity=".42"/><stop offset="1" stop-color="#d5bd76" stop-opacity=".08"/></linearGradient></defs><g stroke="#d5bd76" stroke-width="2.4" stroke-linecap="round" stroke-linejoin="round" fill="url(#metal)"><path d="M31 55V12m0 27C15 40 13 31 14 26c11 0 17 7 17 13Zm0-11C18 29 17 20 18 16c9 0 13 6 13 12Zm0 19c16 1 18-8 17-13-11 0-17 7-17 13Zm0-13c13 0 15-8 14-13-9 0-14 6-14 13Zm0-16c-7-7-4-12 0-16 6 5 6 11 0 16Z"/></g></svg>